<svg width="64" height="64" viewBox="0 0 64 64" fill="none" xmlns="http://www.w3.org/2000/svg">
  <path
    fill-rule="evenodd" clip-rule="evenodd"
    d="M47.1415 7.50418C45.0724 4.73855 41.1587 4.17805 38.4 6.25227C35.6413 8.3265 35.0822 12.25 37.1512 15.0156L49.9512 32.125L37.1512 49.2344C35.0822 52 35.6413 55.9235 38.4 57.9977C41.1587 60.0719 45.0724 59.5114 47.1415 56.7458L62.7512 35.8807C64.4163 33.6551 64.4163 30.5949 62.7512 28.3693L47.1415 7.50418ZM16.8585 56.7458C18.9276 59.5114 22.8413 60.0719 25.6 57.9977C28.3587 55.9235 28.9178 52 26.8488 49.2344L14.0488 32.125L26.8488 15.0156C28.9178 12.25 28.3587 8.3265 25.6 6.25228C22.8413 4.17805 18.9276 4.73855 16.8585 7.50418L1.24878 28.3693C-0.41626 30.5949 -0.41626 33.6551 1.24878 35.8807L16.8585 56.7458Z"
    fill="#E11369"
  />
</svg>